<?xml version="1.0" encoding="UTF-8" standalone="no"?>
<!-- Created with Inkscape (http://www.inkscape.org/) -->

<svg
   xmlns:dc="http://purl.org/dc/elements/1.1/"
   xmlns:cc="http://creativecommons.org/ns#"
   xmlns:rdf="http://www.w3.org/1999/02/22-rdf-syntax-ns#"
   xmlns:svg="http://www.w3.org/2000/svg"
   xmlns="http://www.w3.org/2000/svg"
   xmlns:xlink="http://www.w3.org/1999/xlink"
   xmlns:sodipodi="http://sodipodi.sourceforge.net/DTD/sodipodi-0.dtd"
   xmlns:inkscape="http://www.inkscape.org/namespaces/inkscape"
   width="12.2mm"
   height="12.2mm"
   viewBox="0 0 12.199999 12.2"
   version="1.1"
   id="svg8"
   inkscape:version="0.92.0 r15299"
   sodipodi:docname="GEstimator.svg">
  <defs
     id="defs2">
    <linearGradient
       id="linearGradient2807"
       inkscape:collect="always">
      <stop
         id="stop2809"
         offset="0"
         style="stop-color:#ffffff;stop-opacity:1;" />
      <stop
         id="stop2811"
         offset="1"
         style="stop-color:#ffffff;stop-opacity:0;" />
    </linearGradient>
    <linearGradient
       id="linearGradient18284">
      <stop
         id="stop18286"
         offset="0"
         style="stop-color:#000000;stop-opacity:1;" />
      <stop
         style="stop-color:#000000;stop-opacity:1;"
         offset="0.5"
         id="stop20913" />
      <stop
         style="stop-color:#000000;stop-opacity:0;"
         offset="1"
         id="stop19165" />
    </linearGradient>
    <linearGradient
       id="linearGradient11202">
      <stop
         id="stop11204"
         offset="0"
         style="stop-color:#c4a000;stop-opacity:1;" />
      <stop
         id="stop11206"
         offset="1"
         style="stop-color:#c4a000;stop-opacity:0;" />
    </linearGradient>
    <linearGradient
       id="linearGradient8543">
      <stop
         id="stop8545"
         offset="0"
         style="stop-color:#fffef5;stop-opacity:0.94117647;" />
      <stop
         id="stop8547"
         offset="1"
         style="stop-color:#fce94f;stop-opacity:0;" />
    </linearGradient>
    <linearGradient
       id="linearGradient5012">
      <stop
         id="stop5014"
         offset="0"
         style="stop-color:#fdf188;stop-opacity:1;" />
      <stop
         id="stop5016"
         offset="1"
         style="stop-color:#d3bc00;stop-opacity:1;" />
    </linearGradient>
    <radialGradient
       r="297.21338"
       fy="-72.420044"
       fx="336.73767"
       cy="-72.420044"
       cx="336.73767"
       gradientTransform="matrix(0.136507,0,-4.484926e-5,0.07137743,-23.39816,12.31028)"
       gradientUnits="userSpaceOnUse"
       id="radialGradient7666"
       xlink:href="#linearGradient5012"
       inkscape:collect="always" />
    <radialGradient
       gradientUnits="userSpaceOnUse"
       gradientTransform="matrix(0.163532,-0.01065754,0.01078108,0.165425,-46.18187,-65.65506)"
       r="235.88632"
       fy="685.99139"
       fx="420.87839"
       cy="685.99139"
       cx="420.87839"
       id="radialGradient8549"
       xlink:href="#linearGradient8543"
       inkscape:collect="always" />
    <radialGradient
       gradientUnits="userSpaceOnUse"
       gradientTransform="matrix(0.224796,0.01017229,-0.00975947,0.215674,-73.87964,-54.89804)"
       r="40.975471"
       fy="286.46918"
       fx="500.97794"
       cy="286.46918"
       cx="500.97794"
       id="radialGradient9434"
       xlink:href="#linearGradient8543"
       inkscape:collect="always" />
    <radialGradient
       gradientUnits="userSpaceOnUse"
       gradientTransform="matrix(0.272962,-0.071724,0.05616202,0.213737,-78.54657,-24.30491)"
       r="48.782982"
       fy="243.06874"
       fx="293.81989"
       cy="243.06874"
       cx="293.81989"
       id="radialGradient10317"
       xlink:href="#linearGradient8543"
       inkscape:collect="always" />
    <radialGradient
       gradientUnits="userSpaceOnUse"
       gradientTransform="matrix(0.08174351,0.01024998,-0.04335971,0.345793,6.123413,-84.50421)"
       r="38.451698"
       fy="270.67969"
       fx="424.99243"
       cy="270.67969"
       cx="424.99243"
       id="radialGradient11208"
       xlink:href="#linearGradient11202"
       inkscape:collect="always" />
    <radialGradient
       gradientUnits="userSpaceOnUse"
       gradientTransform="matrix(0.105628,-0.04514018,0.06692574,0.156607,-46.01605,-24.35485)"
       r="103.26014"
       fy="409.83737"
       fx="340.35886"
       cy="409.83737"
       cx="340.35886"
       id="radialGradient13895"
       xlink:href="#linearGradient8543"
       inkscape:collect="always" />
    <radialGradient
       gradientUnits="userSpaceOnUse"
       gradientTransform="matrix(1,0,0,0.415385,0,26.70146)"
       r="30.365856"
       fy="45.673546"
       fx="29.898689"
       cy="45.673546"
       cx="29.898689"
       id="radialGradient18290"
       xlink:href="#linearGradient18284"
       inkscape:collect="always" />
    <radialGradient
       r="35.934704"
       fy="424.15677"
       fx="131.23691"
       cy="424.15677"
       cx="131.23691"
       gradientTransform="matrix(0.101953,-0.04272301,0.09621296,0.229599,-48.67227,-64.24148)"
       gradientUnits="userSpaceOnUse"
       id="radialGradient2798"
       xlink:href="#linearGradient8543"
       inkscape:collect="always" />
    <radialGradient
       gradientUnits="userSpaceOnUse"
       gradientTransform="matrix(1.402663,0,0,1.115648,-6.237984,0.0533075)"
       r="18.370251"
       fy="10.943316"
       fx="15.491823"
       cy="10.943316"
       cx="15.491823"
       id="radialGradient2813"
       xlink:href="#linearGradient2807"
       inkscape:collect="always" />
    <linearGradient
       id="linearGradient3957">
      <stop
         id="stop3959"
         offset="0"
         style="stop-color:#fffeff;stop-opacity:0.33333334;" />
      <stop
         id="stop3961"
         offset="1"
         style="stop-color:#fffeff;stop-opacity:0.21568628;" />
    </linearGradient>
    <linearGradient
       id="linearGradient2536">
      <stop
         id="stop2538"
         offset="0"
         style="stop-color:#a40000;stop-opacity:1;" />
      <stop
         id="stop2540"
         offset="1"
         style="stop-color:#ff1717;stop-opacity:1;" />
    </linearGradient>
    <linearGradient
       id="linearGradient2479">
      <stop
         id="stop2481"
         offset="0"
         style="stop-color:#ffe69b;stop-opacity:1;" />
      <stop
         id="stop2483"
         offset="1"
         style="stop-color:#ffffff;stop-opacity:1;" />
    </linearGradient>
    <linearGradient
       inkscape:collect="always"
       id="linearGradient4126">
      <stop
         style="stop-color:#000000;stop-opacity:1;"
         offset="0"
         id="stop4128" />
      <stop
         style="stop-color:#000000;stop-opacity:0;"
         offset="1"
         id="stop4130" />
    </linearGradient>
    <radialGradient
       r="17.142857"
       fy="40"
       fx="23.857143"
       cy="40"
       cx="23.857143"
       gradientTransform="matrix(1,0,0,0.5,0,20)"
       gradientUnits="userSpaceOnUse"
       id="radialGradient2169"
       xlink:href="#linearGradient4126"
       inkscape:collect="always" />
    <linearGradient
       gradientUnits="userSpaceOnUse"
       y2="-8.5626707"
       x2="20.064686"
       y1="53.835983"
       x1="43.93581"
       id="linearGradient2485"
       xlink:href="#linearGradient2479"
       inkscape:collect="always" />
    <linearGradient
       gradientUnits="userSpaceOnUse"
       y2="5.5410109"
       x2="19.071495"
       y1="66.288063"
       x1="36.917976"
       id="linearGradient2542"
       xlink:href="#linearGradient2536"
       inkscape:collect="always" />
    <linearGradient
       gradientUnits="userSpaceOnUse"
       y2="15.814602"
       x2="20.917078"
       y1="33.955299"
       x1="21.993773"
       id="linearGradient3963"
       xlink:href="#linearGradient3957"
       inkscape:collect="always" />
    <radialGradient
       r="17.142857"
       fy="40"
       fx="23.857143"
       cy="40"
       cx="23.857143"
       gradientTransform="matrix(1,0,0,0.5,0,20)"
       gradientUnits="userSpaceOnUse"
       id="radialGradient3976"
       xlink:href="#linearGradient4126"
       inkscape:collect="always" />
    <linearGradient
       gradientTransform="matrix(1.0316405,0,0,1.0139432,-0.62678087,-0.12022903)"
       y2="15.814602"
       x2="20.917078"
       y1="33.955299"
       x1="21.993773"
       gradientUnits="userSpaceOnUse"
       id="linearGradient3982"
       xlink:href="#linearGradient3957"
       inkscape:collect="always" />
    <linearGradient
       inkscape:collect="always"
       xlink:href="#linearGradient2256"
       id="linearGradient2262"
       x1="21.75"
       y1="15.80225"
       x2="24.30225"
       y2="35.05225"
       gradientUnits="userSpaceOnUse"
       gradientTransform="translate(0,-2)" />
    <radialGradient
       inkscape:collect="always"
       xlink:href="#linearGradient2807"
       id="radialGradient2254"
       cx="16.75"
       cy="10.666344"
       fx="16.75"
       fy="10.666344"
       r="21.25"
       gradientTransform="matrix(4.154957,0,0,3.198723,-52.84553,-23.50921)"
       gradientUnits="userSpaceOnUse" />
    <linearGradient
       inkscape:collect="always"
       xlink:href="#linearGradient4981"
       id="linearGradient2243"
       gradientUnits="userSpaceOnUse"
       x1="23.995985"
       y1="20.105337"
       x2="41.047836"
       y2="37.959785"
       gradientTransform="matrix(0.988373,0,0,0.988373,0.279002,0.278984)" />
    <radialGradient
       inkscape:collect="always"
       xlink:href="#linearGradient9647"
       id="radialGradient2239"
       cx="24.30225"
       cy="33.30225"
       fx="24.30225"
       fy="33.30225"
       r="12.30225"
       gradientUnits="userSpaceOnUse"
       gradientTransform="matrix(1.693981,0,0,1.693981,-16.86529,-25.11111)" />
    <linearGradient
       inkscape:collect="always"
       xlink:href="#linearGradient2807"
       id="linearGradient7901"
       x1="15.578875"
       y1="16.285088"
       x2="32.166405"
       y2="28.394291"
       gradientUnits="userSpaceOnUse" />
    <linearGradient
       inkscape:collect="always"
       xlink:href="#linearGradient4981"
       id="linearGradient4987"
       x1="23.995985"
       y1="20.105337"
       x2="41.047836"
       y2="37.959785"
       gradientUnits="userSpaceOnUse"
       gradientTransform="translate(0,-2)" />
    <linearGradient
       inkscape:collect="always"
       xlink:href="#linearGradient11780"
       id="linearGradient2057"
       x1="15.737001"
       y1="12.5036"
       x2="53.570126"
       y2="47.374317"
       gradientUnits="userSpaceOnUse"
       gradientTransform="translate(0,-2)" />
    <linearGradient
       y2="9.650753"
       x2="9.8940229"
       y1="5.3855424"
       x1="5.736527"
       gradientTransform="rotate(180,15.86085,15.645395)"
       gradientUnits="userSpaceOnUse"
       id="linearGradient15772"
       xlink:href="#linearGradient2807"
       inkscape:collect="always" />
    <linearGradient
       id="linearGradient11014">
      <stop
         style="stop-color:#a80000;stop-opacity:1.0000000;"
         offset="0.0000000"
         id="stop11016" />
      <stop
         style="stop-color:#c60000;stop-opacity:1.0000000;"
         offset="0.0000000"
         id="stop13245" />
      <stop
         style="stop-color:#e50000;stop-opacity:1.0000000;"
         offset="1.0000000"
         id="stop11018" />
    </linearGradient>
    <linearGradient
       id="linearGradient11780">
      <stop
         style="stop-color:#ff8b8b;stop-opacity:1.0000000;"
         offset="0.0000000"
         id="stop11782" />
      <stop
         style="stop-color:#ec1b1b;stop-opacity:1.0000000;"
         offset="1.0000000"
         id="stop11784" />
    </linearGradient>
    <linearGradient
       id="linearGradient14236">
      <stop
         id="stop14238"
         offset="0.0000000"
         style="stop-color:#ed4040;stop-opacity:1.0000000;" />
      <stop
         id="stop14240"
         offset="1.0000000"
         style="stop-color:#a40000;stop-opacity:1.0000000;" />
    </linearGradient>
    <linearGradient
       id="linearGradient4981">
      <stop
         style="stop-color:#cc0000;stop-opacity:1;"
         offset="0"
         id="stop4983" />
      <stop
         style="stop-color:#b30000;stop-opacity:1.0000000;"
         offset="1.0000000"
         id="stop4985" />
    </linearGradient>
    <radialGradient
       inkscape:collect="always"
       xlink:href="#linearGradient4126"
       id="radialGradient21650"
       cx="25.125"
       cy="36.75"
       fx="25.125"
       fy="36.75"
       r="15.75"
       gradientTransform="matrix(1,0,0,0.595238,0,14.875)"
       gradientUnits="userSpaceOnUse" />
    <linearGradient
       id="linearGradient9647">
      <stop
         style="stop-color:#ffffff;stop-opacity:1;"
         offset="0"
         id="stop9649" />
      <stop
         style="stop-color:#dbdbdb;stop-opacity:1;"
         offset="1"
         id="stop9651" />
    </linearGradient>
    <linearGradient
       id="linearGradient2256">
      <stop
         style="stop-color:#ff0202;stop-opacity:1;"
         offset="0"
         id="stop2258" />
      <stop
         style="stop-color:#ff9b9b;stop-opacity:1;"
         offset="1"
         id="stop2260" />
    </linearGradient>
    <radialGradient
       r="12.30225"
       fy="33.30225"
       fx="24.30225"
       cy="33.30225"
       cx="24.30225"
       gradientTransform="matrix(1.693981,0,0,1.693981,-16.86529,-23.715608)"
       gradientUnits="userSpaceOnUse"
       id="radialGradient2335"
       xlink:href="#linearGradient9647"
       inkscape:collect="always" />
    <linearGradient
       y2="35.05225"
       x2="24.30225"
       y1="15.80225"
       x1="21.75"
       gradientTransform="translate(-7.1723252e-7,-0.6044975)"
       gradientUnits="userSpaceOnUse"
       id="linearGradient2337"
       xlink:href="#linearGradient2256"
       inkscape:collect="always" />
    <radialGradient
       inkscape:collect="always"
       xlink:href="#linearGradient4126"
       id="radialGradient3605"
       gradientUnits="userSpaceOnUse"
       gradientTransform="matrix(2.182912,0,0,0.7675402,-19.531098,16.887937)"
       cx="17.3125"
       cy="25.53125"
       fx="17.3125"
       fy="25.53125"
       r="9.6875" />
    <radialGradient
       cx="17.3125"
       cy="25.53125"
       r="9.6875"
       fx="17.3125"
       fy="25.53125"
       id="radialGradient7200"
       xlink:href="#linearGradient4126"
       gradientUnits="userSpaceOnUse"
       gradientTransform="matrix(2.182912,0,0,0.7675402,-13.50372,21.786089)" />
    <radialGradient
       cx="17.3125"
       cy="25.53125"
       r="9.6875"
       fx="17.3125"
       fy="25.53125"
       id="radialGradient3107"
       xlink:href="#linearGradient4126"
       gradientUnits="userSpaceOnUse"
       gradientTransform="matrix(1,0,0,0.351613,0,16.55413)" />
    <radialGradient
       inkscape:collect="always"
       xlink:href="#linearGradient4126"
       id="radialGradient3489"
       gradientUnits="userSpaceOnUse"
       gradientTransform="matrix(1,0,0,0.351613,0,16.5541)"
       cx="17.3125"
       cy="25.53125"
       fx="17.3125"
       fy="25.53125"
       r="9.6875" />
    <radialGradient
       inkscape:collect="always"
       xlink:href="#linearGradient4126"
       id="radialGradient2659"
       gradientUnits="userSpaceOnUse"
       gradientTransform="matrix(1,0,0,0.351613,0,16.5541)"
       cx="17.3125"
       cy="25.53125"
       fx="17.3125"
       fy="25.53125"
       r="9.6875" />
    <inkscape:perspective
       id="perspective2598"
       inkscape:persp3d-origin="23.999999 : 16 : 1"
       inkscape:vp_z="47.999998 : 24 : 1"
       inkscape:vp_y="0 : 999.99999 : 0"
       inkscape:vp_x="0 : 24 : 1"
       sodipodi:type="inkscape:persp3d" />
    <linearGradient
       id="linearGradient2591">
      <stop
         id="stop2593"
         offset="0"
         style="stop-color:#73d216" />
      <stop
         id="stop2595"
         offset="1.0000000"
         style="stop-color:#4e9a06" />
    </linearGradient>
    <radialGradient
       inkscape:collect="always"
       xlink:href="#linearGradient4126"
       id="radialGradient3107-5"
       cx="17.3125"
       cy="25.53125"
       fx="17.3125"
       fy="25.53125"
       r="9.6875"
       gradientTransform="matrix(1,0,0,0.351613,0,16.5541)"
       gradientUnits="userSpaceOnUse" />
    <inkscape:perspective
       sodipodi:type="inkscape:persp3d"
       inkscape:vp_x="0 : 24 : 1"
       inkscape:vp_y="0 : 999.99999 : 0"
       inkscape:vp_z="47.999998 : 24 : 1"
       inkscape:persp3d-origin="23.999999 : 16 : 1"
       id="perspective2492" />
  </defs>
  <sodipodi:namedview
     id="base"
     pagecolor="#ffffff"
     bordercolor="#666666"
     borderopacity="1.0"
     inkscape:pageopacity="0.0"
     inkscape:pageshadow="2"
     inkscape:zoom="2.8"
     inkscape:cx="-86.690099"
     inkscape:cy="56.228824"
     inkscape:document-units="mm"
     inkscape:current-layer="layer1"
     showgrid="false"
     fit-margin-top="0"
     fit-margin-left="0"
     fit-margin-right="0"
     fit-margin-bottom="0"
     inkscape:window-width="1366"
     inkscape:window-height="706"
     inkscape:window-x="-8"
     inkscape:window-y="-8"
     inkscape:window-maximized="1" />
  <metadata
     id="metadata5">
    <rdf:RDF>
      <cc:Work
         rdf:about="">
        <dc:format>image/svg+xml</dc:format>
        <dc:type
           rdf:resource="http://purl.org/dc/dcmitype/StillImage" />
        <dc:title />
      </cc:Work>
    </rdf:RDF>
  </metadata>
  <g
     inkscape:label="Layer 1"
     inkscape:groupmode="layer"
     id="layer1"
     transform="translate(-99.864495,-142.70637)">
    <g
       id="layer1-1"
       inkscape:label="Layer 1"
       transform="matrix(0.26458333,0,0,0.26458333,99.471132,142.58047)">
      <ellipse
         transform="matrix(0.742527,0,-0.05812964,1.428611,4.500517,-36.68345)"
         id="path17409"
         style="opacity:1;fill:url(#radialGradient18290);fill-opacity:1;stroke:none;stroke-width:12.39700031;stroke-miterlimit:4;stroke-dasharray:none;stroke-opacity:1"
         cx="29.898689"
         cy="45.673546"
         rx="30.365856"
         ry="12.613509" />
      <path
         sodipodi:nodetypes="cccscsssscsccsc"
         id="path3120"
         d="M 23.152758,1.1801876 C 20.380218,1.2190783 17.86582,1.8908769 15.634281,3.0196314 14.541531,5.1714614 10.9437,7.7293655 9.4689484,8.0015561 6.5691703,11.460832 4.6887193,15.805035 3.9754523,19.98162 c -4.375e-4,0.0026 4.366e-4,0.0052 0,0.0077 -1.1863594,1.549717 -1.6900108,3.396594 -1.3773472,5.53256 1.1211744,7.659314 3.2821678,14.888292 8.1850959,16.556275 7.154429,2.433946 21.871769,1.785847 25.129507,0.458258 7.13903,-2.909286 7.771453,-9.285098 8.891432,-16.780256 0.305554,-2.044832 -0.144835,-3.841202 -1.230601,-5.372942 -0.009,-0.0556 -0.01849,-0.111474 -0.02832,-0.167342 C 42.763966,15.777007 40.697859,11.326849 37.602582,7.8466935 35.508773,7.62926 31.462964,4.270333 30.483158,2.6229925 28.330506,1.7020155 25.961342,1.1801876 23.407632,1.1801876 c -0.08532,0 -0.170037,-0.00119 -0.254874,0 z"
         style="fill:url(#radialGradient7666);fill-opacity:1;stroke:#c4a000;stroke-width:1;stroke-miterlimit:4;stroke-dasharray:none;stroke-opacity:1"
         inkscape:connector-curvature="0" />
      <path
         sodipodi:nodetypes="ccscc"
         id="path7668"
         d="M 43.629688,22.792984 C 39.033494,39.233217 10.438199,40.802737 3.7832765,23.04227 3.7410682,39.366403 10.103414,44.083889 28.189955,43.247454 c 3.061977,-0.140689 10.00982,0.04287 14.614484,-9.136776 2.238365,-11.5104 0.825249,-11.317694 0.825249,-11.317694 z"
         style="opacity:0.66666667;fill:url(#radialGradient8549);fill-opacity:1;fill-rule:evenodd;stroke:none;stroke-width:1px;stroke-linecap:butt;stroke-linejoin:miter;stroke-opacity:1"
         inkscape:connector-curvature="0" />
      <path
         sodipodi:nodetypes="cccc"
         id="path8553"
         d="m 34.691565,7.6783057 2.500881,1.1253976 c 0,0 -1.310404,10.1226397 -6.669016,16.4849717 1.771665,-6.455834 4.188975,-17.6103693 4.168135,-17.6103693 z"
         style="fill:url(#radialGradient9434);fill-opacity:1;fill-rule:evenodd;stroke:none;stroke-width:1px;stroke-linecap:butt;stroke-linejoin:miter;stroke-opacity:1"
         inkscape:connector-curvature="0" />
      <path
         sodipodi:nodetypes="cccc"
         id="path9436"
         d="m 15.872437,4.1562328 c 1.50053,9.0656942 6.50229,19.4860282 6.002115,20.0070452 -4.584948,-6.981624 -6.502291,-12.921217 -8.00282,-17.9229779 0,-0.083363 2.000705,-2.0632267 2.000705,-2.0840673 z"
         style="fill:url(#radialGradient10317);fill-opacity:1;fill-rule:evenodd;stroke:none;stroke-width:1px;stroke-linecap:butt;stroke-linejoin:miter;stroke-opacity:1"
         inkscape:connector-curvature="0" />
      <path
         sodipodi:nodetypes="ccsc"
         id="path10319"
         d="M 30.21082,3.8227818 C 26.126047,20.328594 25.959322,23.079563 25.959322,23.079563 c 0,0 6.335566,-16.7559003 6.335566,-17.1727135 0,-8e-7 -1.583891,-1.5005286 -2.084068,-2.0840677 z"
         style="fill:url(#radialGradient11208);fill-opacity:1;fill-rule:evenodd;stroke:none;stroke-width:1px;stroke-linecap:butt;stroke-linejoin:miter;stroke-opacity:1"
         inkscape:connector-curvature="0" />
      <flowRoot
         id="flowRoot12974"
         xml:space="preserve"><flowRegion
           id="flowRegion12976"><rect
             y="412.80496"
             x="86.787514"
             height="16.02231"
             width="40.055775"
             id="rect12978" /></flowRegion><flowPara
           id="flowPara12980" /></flowRoot>      <path
         sodipodi:nodetypes="ccccccc"
         id="path13014"
         d="m 16.18209,34.476182 -0.04467,-9.569745 h 14.493727 l 1.642604,-1.263542 H 15.342282 l 0.04467,10.640581 z"
         style="fill:url(#radialGradient13895);fill-opacity:1;fill-rule:evenodd;stroke:none;stroke-width:1px;stroke-linecap:butt;stroke-linejoin:miter;stroke-opacity:1"
         inkscape:connector-curvature="0" />
      <path
         sodipodi:nodetypes="ccccc"
         id="path13897"
         d="m 31.043495,24.81709 0.08168,9.804611 0.686144,-0.214742 0.01198,-10.85341 z"
         style="fill:#958401;fill-opacity:1;fill-rule:evenodd;stroke:none;stroke-width:1px;stroke-linecap:butt;stroke-linejoin:miter;stroke-opacity:1"
         inkscape:connector-curvature="0" />
      <path
         sodipodi:nodetypes="ccccscc"
         id="path16526"
         d="m 4.2551267,24.106065 c 0,0 2.3166503,8.115689 10.2209413,8.766037 1.105608,2.490418 -1.13497,4.124601 -1.13497,4.124601 L 9.7315781,36.745641 c 0,0 -6.2387745,-7.992942 -6.4882087,-9.900882 -0.2494325,-1.907937 0.1632835,-3.407793 0.1632835,-3.407793 z"
         style="fill:url(#radialGradient2798);fill-opacity:1;fill-rule:evenodd;stroke:none;stroke-width:1px;stroke-linecap:butt;stroke-linejoin:miter;stroke-opacity:1"
         inkscape:connector-curvature="0" />
      <path
         style="opacity:0.74444442;fill:none;fill-opacity:1;stroke:#ffffff;stroke-width:0.99999976;stroke-miterlimit:4;stroke-dasharray:none;stroke-opacity:1"
         d="M 23.184204,2.3889904 C 20.570275,2.4256563 18.199721,3.0590226 16.095844,4.1232033 15.065608,6.1519314 11.673602,8.563503 10.283218,8.8201221 7.5493302,12.0815 5.776456,16.17718 5.1039936,20.11483 c -4.124e-4,0.0024 4.116e-4,0.0049 0,0.0073 -1.1184901,1.46106 -1.8584936,3.246475 -1.5637169,5.260247 1.0570343,7.22114 2.9276025,13.709677 7.3279793,15.639454 5.923141,2.597582 21.539722,1.785935 24.611092,0.534295 6.73062,-2.742852 7.061699,-8.930694 8.117606,-15.997069 0.288074,-1.927851 -0.13655,-3.621454 -1.160201,-5.065566 -0.0084,-0.05242 -0.01743,-0.105097 -0.0267,-0.157769 C 41.673494,16.150755 39.725585,11.955182 36.807382,8.6741189 34.833356,8.4691243 31.019,5.3023548 30.095246,3.7492553 28.065743,2.8809656 25.832115,2.3889904 23.424497,2.3889904 c -0.08044,0 -0.160309,-0.00112 -0.240293,0 z"
         id="path2703"
         sodipodi:nodetypes="cccscsssscsccsc"
         inkscape:connector-curvature="0" />
      <path
         sodipodi:nodetypes="cccssccscccssc"
         id="path2800"
         d="m 22.59375,2.78125 c -2.329557,0.1165682 -4.440971,0.7250384 -6.34375,1.6875 -1.010725,1.9903059 -4.354698,4.373241 -5.71875,4.625 -2.6821095,3.199611 -4.4027734,7.199424 -5.0625,11.0625 -4.046e-4,0.0024 4.038e-4,0.02888 0,0.03125 -1.0973069,1.43339 -1.4580267,3.591148 -1.4580267,3.591148 4.685267,3.605062 7.6416117,0.213892 14.3188727,-2.01722 12.59928,1.923141 18.748338,-0.995945 22.514154,-5.667678 0.0069,-0.0085 -0.0035,-0.02088 0,-0.03125 C 39.852567,13.479666 38.411479,11.016387 36.5625,8.9375 34.62586,8.7363873 30.875008,5.6486852 29.96875,4.125 27.977684,3.2731547 25.79952,2.78125 23.4375,2.78125 c -0.07892,10e-8 -0.171531,-0.0011 -0.25,0 -0.200346,0.00281 -0.39633,-0.00988 -0.59375,0 z"
         style="opacity:0.5944443;fill:url(#radialGradient2813);fill-opacity:1;stroke:none;stroke-width:1;stroke-miterlimit:4;stroke-dasharray:none;stroke-opacity:1"
         inkscape:connector-curvature="0" />
    </g>
    <g
       id="g274"
       transform="matrix(0.15854948,0,0,0.15854948,104.304,143.04116)">
      <g
         inkscape:label="Shadow"
         id="layer2">
        <ellipse
           style="color:#000000;display:block;overflow:visible;visibility:visible;opacity:0.6;fill:url(#radialGradient3976);fill-opacity:1;fill-rule:nonzero;stroke:none;stroke-width:1;stroke-linecap:butt;stroke-linejoin:miter;stroke-miterlimit:10;stroke-dasharray:none;stroke-dashoffset:0;stroke-opacity:1;marker:none;marker-start:none;marker-mid:none;marker-end:none"
           id="path6548"
           transform="matrix(1.070555,0,0,0.525,-0.892755,22.5)"
           inkscape:r_cx="true"
           inkscape:r_cy="true"
           cx="23.857143"
           cy="40"
           rx="17.142857"
           ry="8.5714283" />
      </g>
      <g
         inkscape:label="Layer 1"
         id="layer1-7">
        <g
           style="fill:#f57900;stroke:#8f5902"
           id="g4006">
          <circle
             inkscape:r_cy="true"
             inkscape:r_cx="true"
             style="fill:#f57900;fill-opacity:1;fill-rule:nonzero;stroke:#8f5902;stroke-width:1.08638;stroke-linecap:butt;stroke-linejoin:miter;stroke-miterlimit:4;stroke-dasharray:none;stroke-opacity:1"
             id="path1314"
             transform="matrix(0.920488,0,0,0.920488,2.368532,0.97408)"
             cx="23.5"
             cy="23.928572"
             r="23.357143" />
          <circle
             inkscape:r_cy="true"
             inkscape:r_cx="true"
             style="opacity:0.35;fill:none;stroke:#ffffff;stroke-width:1.1702975;stroke-linecap:butt;stroke-linejoin:miter;stroke-miterlimit:4;stroke-dasharray:none;stroke-opacity:1"
             id="path3560"
             transform="matrix(0.85448271,0,0,0.85448271,1.8600011,0.24061972)"
             cx="25.910412"
             cy="26.635273"
             r="23.991123" />
          <path
             id="path3684"
             d="M 24,3 C 12.954305,3 4,11.954305 4,23 c 0,1.686052 0.2321382,3.310816 0.625,4.875 3.2039734,4.793264 13.253522,-0.120144 20.21875,-5.59375 8.00805,-6.293106 17.842029,8.359347 19.125,1.4375 C 43.977181,23.480132 44,23.240675 44,23 44,11.954305 35.045695,3 24,3 Z"
             style="opacity:0.25;fill:#ffffff;stroke:none;stroke-width:0.99999899;stroke-linecap:butt;stroke-linejoin:miter;stroke-miterlimit:4;stroke-dasharray:none;stroke-opacity:1"
             inkscape:connector-curvature="0" />
        </g>
        <g
           id="g4476"
           transform="translate(-0.2810449,0.72591916)">
          <path
             id="text3527"
             d="m 34.728165,18.772038 c 0.570997,-0.72125 1.065078,-1.489179 1.482246,-2.303787 0.417152,-0.814586 0.769335,-1.660938 1.056547,-2.53906 l -3.252683,-1.032972 c -0.131269,0.48208 -0.21551,0.796623 -0.252722,0.943631 -0.03722,0.147037 -0.08102,0.303091 -0.13138,0.468163 -0.05037,0.1651 -0.160913,0.515772 -0.331622,1.052019 -0.104532,0.329152 -0.255728,0.735215 -0.453588,1.218187 -0.19787,0.482994 -0.411927,0.946934 -0.642173,1.391822 z"
             style="font-style:normal;font-variant:normal;font-weight:900;font-stretch:normal;font-size:21.19759369px;line-height:100%;font-family:'Antique Olive Std Black';-inkscape-font-specification:'Antique Olive Std Black Heavy';text-align:start;writing-mode:lr-tb;text-anchor:start;fill:#ffffff;fill-opacity:1;stroke:none"
             inkscape:connector-curvature="0" />
          <path
             id="path3550"
             d="m 38.978165,20.022038 c 0.570997,-0.72125 1.065078,-1.489179 1.482246,-2.303787 0.417152,-0.814586 0.769335,-1.660938 1.056547,-2.53906 l -3.252683,-1.032972 c -0.131269,0.48208 -0.21551,0.796623 -0.252722,0.943631 -0.03722,0.147037 -0.08102,0.303091 -0.13138,0.468163 -0.05037,0.1651 -0.160913,0.515772 -0.331622,1.052019 -0.104532,0.329152 -0.255728,0.735215 -0.453588,1.218187 -0.19787,0.482994 -0.411927,0.946934 -0.642173,1.391822 z"
             style="font-style:normal;font-variant:normal;font-weight:900;font-stretch:normal;font-size:21.19759369px;line-height:100%;font-family:'Antique Olive Std Black';-inkscape-font-specification:'Antique Olive Std Black Heavy';text-align:start;writing-mode:lr-tb;text-anchor:start;fill:#ffffff;fill-opacity:1;stroke:none"
             inkscape:connector-curvature="0" />
          <path
             id="path3552"
             d="m 13.833923,18.519948 c -0.570997,-0.72125 -1.065078,-1.489179 -1.482246,-2.303787 -0.417152,-0.814586 -0.769335,-1.660938 -1.056547,-2.53906 l 3.252683,-1.032972 c 0.131269,0.48208 0.21551,0.796623 0.252722,0.943631 0.03722,0.147037 0.08102,0.303091 0.13138,0.468163 0.05037,0.1651 0.160913,0.515772 0.331622,1.052019 0.104532,0.329152 0.255728,0.735215 0.453588,1.218187 0.19787,0.482994 0.411927,0.946934 0.642173,1.391822 z"
             style="font-style:normal;font-variant:normal;font-weight:900;font-stretch:normal;font-size:21.19759369px;line-height:100%;font-family:'Antique Olive Std Black';-inkscape-font-specification:'Antique Olive Std Black Heavy';text-align:start;writing-mode:lr-tb;text-anchor:start;fill:#ffffff;fill-opacity:1;stroke:none"
             inkscape:connector-curvature="0" />
          <path
             id="path3554"
             d="M 9.5839239,19.894948 C 9.0129278,19.173698 8.5188468,18.405769 8.1016788,17.591161 7.6845268,16.776575 7.3323438,15.930223 7.0451318,15.052101 l 3.2526812,-1.032972 c 0.131269,0.48208 0.21551,0.796623 0.252722,0.943631 0.03722,0.147037 0.08102,0.303091 0.13138,0.468163 0.05037,0.1651 0.160913,0.515772 0.331622,1.052019 0.104532,0.329152 0.255728,0.735215 0.453588,1.218187 0.19787,0.482994 0.411927,0.946934 0.642173,1.391822 z"
             style="font-style:normal;font-variant:normal;font-weight:900;font-stretch:normal;font-size:21.19759369px;line-height:100%;font-family:'Antique Olive Std Black';-inkscape-font-specification:'Antique Olive Std Black Heavy';text-align:start;writing-mode:lr-tb;text-anchor:start;fill:#ffffff;fill-opacity:1;stroke:none"
             inkscape:connector-curvature="0" />
          <path
             id="path3708"
             d="m 23.064075,35.679309 h 2.594552 v -3.612023 c 1.541034,-0.251189 2.82771,-0.893467 3.860031,-1.926837 1.032296,-1.033367 1.568587,-2.400593 1.608877,-4.101681 -0.04506,-1.728369 -0.495501,-3.009216 -1.351329,-3.842544 -0.855854,-0.83331 -1.846828,-1.417825 -2.972924,-1.753548 -1.126117,-0.335701 -2.11709,-0.621335 -2.972924,-0.856902 -0.855849,-0.235543 -1.306291,-0.619744 -1.351329,-1.152604 0.04027,-0.631137 0.34127,-1.047664 0.903005,-1.249583 0.561721,-0.201889 1.142527,-0.294098 1.74242,-0.276624 0.95175,-0.02171 1.916227,0.148925 2.893434,0.511915 0.977184,0.363018 1.827196,1.048751 2.550038,2.0572 V 13.981733 C 29.849853,13.462416 29.072972,13.063907 28.23728,12.786204 27.401565,12.508538 26.542015,12.338959 25.658627,12.277468 V 8.8689389 h -2.594552 v 3.4085291 c -1.520913,0.261276 -2.809709,0.896136 -3.866391,1.904579 -1.056689,1.008479 -1.607818,2.349208 -1.653391,4.022192 0.04663,1.81841 0.512974,3.148143 1.399023,3.989202 0.886044,0.841078 1.911993,1.424401 3.077851,1.749971 1.165846,0.325586 2.191795,0.624335 3.07785,0.89625 0.886039,0.271928 1.352379,0.74794 1.399023,1.428037 -0.04664,0.544776 -0.360363,0.90513 -0.941161,1.081063 -0.580815,0.175942 -1.148902,0.256491 -1.704264,0.24165 -0.973493,-0.0053 -2.0217,-0.229987 -3.144623,-0.674075 -1.122931,-0.444079 -1.974002,-1.075759 -2.553217,-1.89504 v 5.163667 c 0.706929,0.523574 1.461553,0.945401 2.263874,1.26548 0.802314,0.320079 1.684121,0.525693 2.645426,0.616842 z"
             style="font-style:normal;font-variant:normal;font-weight:900;font-stretch:normal;font-size:21.19759369px;line-height:100%;font-family:'Antique Olive Std Black';-inkscape-font-specification:'Antique Olive Std Black Heavy';text-align:start;writing-mode:lr-tb;text-anchor:start;fill:#ffffff;fill-opacity:1;stroke:none"
             inkscape:connector-curvature="0" />
        </g>
      </g>
      <g
         inkscape:label="Error Box"
         id="layer3" />
      <g
         inkscape:label="Glossy Shine"
         id="layer4" />
    </g>
  </g>
</svg>
