<?xml version="1.0" encoding="UTF-8" standalone="no"?>
<!-- Created with Inkscape (http://www.inkscape.org/) -->

<svg
   xmlns:dc="http://purl.org/dc/elements/1.1/"
   xmlns:cc="http://creativecommons.org/ns#"
   xmlns:rdf="http://www.w3.org/1999/02/22-rdf-syntax-ns#"
   xmlns:svg="http://www.w3.org/2000/svg"
   xmlns="http://www.w3.org/2000/svg"
   xmlns:xlink="http://www.w3.org/1999/xlink"
   xmlns:sodipodi="http://sodipodi.sourceforge.net/DTD/sodipodi-0.dtd"
   xmlns:inkscape="http://www.inkscape.org/namespaces/inkscape"
   width="12.2mm"
   height="12.2mm"
   viewBox="0 0 12.199999 12.2"
   version="1.1"
   id="svg8"
   inkscape:version="0.92.0 r15299"
   sodipodi:docname="GEstimator_.svg">
  <defs
     id="defs2">
    <linearGradient
       id="linearGradient2807"
       inkscape:collect="always">
      <stop
         id="stop2809"
         offset="0"
         style="stop-color:#ffffff;stop-opacity:1;" />
      <stop
         id="stop2811"
         offset="1"
         style="stop-color:#ffffff;stop-opacity:0;" />
    </linearGradient>
    <linearGradient
       id="linearGradient18284">
      <stop
         id="stop18286"
         offset="0"
         style="stop-color:#000000;stop-opacity:1;" />
      <stop
         style="stop-color:#000000;stop-opacity:1;"
         offset="0.5"
         id="stop20913" />
      <stop
         style="stop-color:#000000;stop-opacity:0;"
         offset="1"
         id="stop19165" />
    </linearGradient>
    <linearGradient
       id="linearGradient11202">
      <stop
         id="stop11204"
         offset="0"
         style="stop-color:#c4a000;stop-opacity:1;" />
      <stop
         id="stop11206"
         offset="1"
         style="stop-color:#c4a000;stop-opacity:0;" />
    </linearGradient>
    <linearGradient
       id="linearGradient8543">
      <stop
         id="stop8545"
         offset="0"
         style="stop-color:#fffef5;stop-opacity:0.94117647;" />
      <stop
         id="stop8547"
         offset="1"
         style="stop-color:#fce94f;stop-opacity:0;" />
    </linearGradient>
    <linearGradient
       id="linearGradient5012">
      <stop
         id="stop5014"
         offset="0"
         style="stop-color:#fdf188;stop-opacity:1;" />
      <stop
         id="stop5016"
         offset="1"
         style="stop-color:#d3bc00;stop-opacity:1;" />
    </linearGradient>
    <radialGradient
       r="297.21338"
       fy="-72.420044"
       fx="336.73767"
       cy="-72.420044"
       cx="336.73767"
       gradientTransform="matrix(0.136507,0,-4.484926e-5,0.07137743,-23.39816,12.31028)"
       gradientUnits="userSpaceOnUse"
       id="radialGradient7666"
       xlink:href="#linearGradient5012"
       inkscape:collect="always" />
    <radialGradient
       gradientUnits="userSpaceOnUse"
       gradientTransform="matrix(0.163532,-0.01065754,0.01078108,0.165425,-46.18187,-65.65506)"
       r="235.88632"
       fy="685.99139"
       fx="420.87839"
       cy="685.99139"
       cx="420.87839"
       id="radialGradient8549"
       xlink:href="#linearGradient8543"
       inkscape:collect="always" />
    <radialGradient
       gradientUnits="userSpaceOnUse"
       gradientTransform="matrix(0.224796,0.01017229,-0.00975947,0.215674,-73.87964,-54.89804)"
       r="40.975471"
       fy="286.46918"
       fx="500.97794"
       cy="286.46918"
       cx="500.97794"
       id="radialGradient9434"
       xlink:href="#linearGradient8543"
       inkscape:collect="always" />
    <radialGradient
       gradientUnits="userSpaceOnUse"
       gradientTransform="matrix(0.272962,-0.071724,0.05616202,0.213737,-78.54657,-24.30491)"
       r="48.782982"
       fy="243.06874"
       fx="293.81989"
       cy="243.06874"
       cx="293.81989"
       id="radialGradient10317"
       xlink:href="#linearGradient8543"
       inkscape:collect="always" />
    <radialGradient
       gradientUnits="userSpaceOnUse"
       gradientTransform="matrix(0.08174351,0.01024998,-0.04335971,0.345793,6.123413,-84.50421)"
       r="38.451698"
       fy="270.67969"
       fx="424.99243"
       cy="270.67969"
       cx="424.99243"
       id="radialGradient11208"
       xlink:href="#linearGradient11202"
       inkscape:collect="always" />
    <radialGradient
       gradientUnits="userSpaceOnUse"
       gradientTransform="matrix(0.105628,-0.04514018,0.06692574,0.156607,-46.01605,-24.35485)"
       r="103.26014"
       fy="409.83737"
       fx="340.35886"
       cy="409.83737"
       cx="340.35886"
       id="radialGradient13895"
       xlink:href="#linearGradient8543"
       inkscape:collect="always" />
    <radialGradient
       gradientUnits="userSpaceOnUse"
       gradientTransform="matrix(1,0,0,0.415385,0,26.70146)"
       r="30.365856"
       fy="45.673546"
       fx="29.898689"
       cy="45.673546"
       cx="29.898689"
       id="radialGradient18290"
       xlink:href="#linearGradient18284"
       inkscape:collect="always" />
    <radialGradient
       r="35.934704"
       fy="424.15677"
       fx="131.23691"
       cy="424.15677"
       cx="131.23691"
       gradientTransform="matrix(0.101953,-0.04272301,0.09621296,0.229599,-48.67227,-64.24148)"
       gradientUnits="userSpaceOnUse"
       id="radialGradient2798"
       xlink:href="#linearGradient8543"
       inkscape:collect="always" />
    <radialGradient
       gradientUnits="userSpaceOnUse"
       gradientTransform="matrix(1.402663,0,0,1.115648,-6.237984,0.0533075)"
       r="18.370251"
       fy="10.943316"
       fx="15.491823"
       cy="10.943316"
       cx="15.491823"
       id="radialGradient2813"
       xlink:href="#linearGradient2807"
       inkscape:collect="always" />
    <linearGradient
       id="linearGradient3957">
      <stop
         id="stop3959"
         offset="0"
         style="stop-color:#fffeff;stop-opacity:0.33333334;" />
      <stop
         id="stop3961"
         offset="1"
         style="stop-color:#fffeff;stop-opacity:0.21568628;" />
    </linearGradient>
    <linearGradient
       id="linearGradient2536">
      <stop
         id="stop2538"
         offset="0"
         style="stop-color:#a40000;stop-opacity:1;" />
      <stop
         id="stop2540"
         offset="1"
         style="stop-color:#ff1717;stop-opacity:1;" />
    </linearGradient>
    <linearGradient
       id="linearGradient2479">
      <stop
         id="stop2481"
         offset="0"
         style="stop-color:#ffe69b;stop-opacity:1;" />
      <stop
         id="stop2483"
         offset="1"
         style="stop-color:#ffffff;stop-opacity:1;" />
    </linearGradient>
    <linearGradient
       inkscape:collect="always"
       id="linearGradient4126">
      <stop
         style="stop-color:#000000;stop-opacity:1;"
         offset="0"
         id="stop4128" />
      <stop
         style="stop-color:#000000;stop-opacity:0;"
         offset="1"
         id="stop4130" />
    </linearGradient>
    <radialGradient
       r="17.142857"
       fy="40"
       fx="23.857143"
       cy="40"
       cx="23.857143"
       gradientTransform="matrix(1,0,0,0.5,0,20)"
       gradientUnits="userSpaceOnUse"
       id="radialGradient2169"
       xlink:href="#linearGradient4126"
       inkscape:collect="always" />
    <linearGradient
       gradientUnits="userSpaceOnUse"
       y2="-8.5626707"
       x2="20.064686"
       y1="53.835983"
       x1="43.93581"
       id="linearGradient2485"
       xlink:href="#linearGradient2479"
       inkscape:collect="always" />
    <linearGradient
       gradientUnits="userSpaceOnUse"
       y2="5.5410109"
       x2="19.071495"
       y1="66.288063"
       x1="36.917976"
       id="linearGradient2542"
       xlink:href="#linearGradient2536"
       inkscape:collect="always" />
    <linearGradient
       gradientUnits="userSpaceOnUse"
       y2="15.814602"
       x2="20.917078"
       y1="33.955299"
       x1="21.993773"
       id="linearGradient3963"
       xlink:href="#linearGradient3957"
       inkscape:collect="always" />
    <linearGradient
       gradientTransform="matrix(1.0316405,0,0,1.0139432,-0.62678087,-0.12022903)"
       y2="15.814602"
       x2="20.917078"
       y1="33.955299"
       x1="21.993773"
       gradientUnits="userSpaceOnUse"
       id="linearGradient3982"
       xlink:href="#linearGradient3957"
       inkscape:collect="always" />
    <linearGradient
       inkscape:collect="always"
       xlink:href="#linearGradient2256"
       id="linearGradient2262"
       x1="21.75"
       y1="15.80225"
       x2="24.30225"
       y2="35.05225"
       gradientUnits="userSpaceOnUse"
       gradientTransform="translate(0,-2)" />
    <radialGradient
       inkscape:collect="always"
       xlink:href="#linearGradient2807"
       id="radialGradient2254"
       cx="16.75"
       cy="10.666344"
       fx="16.75"
       fy="10.666344"
       r="21.25"
       gradientTransform="matrix(4.154957,0,0,3.198723,-52.84553,-23.50921)"
       gradientUnits="userSpaceOnUse" />
    <linearGradient
       inkscape:collect="always"
       xlink:href="#linearGradient4981"
       id="linearGradient2243"
       gradientUnits="userSpaceOnUse"
       x1="23.995985"
       y1="20.105337"
       x2="41.047836"
       y2="37.959785"
       gradientTransform="matrix(0.988373,0,0,0.988373,0.279002,0.278984)" />
    <radialGradient
       inkscape:collect="always"
       xlink:href="#linearGradient9647"
       id="radialGradient2239"
       cx="24.30225"
       cy="33.30225"
       fx="24.30225"
       fy="33.30225"
       r="12.30225"
       gradientUnits="userSpaceOnUse"
       gradientTransform="matrix(1.693981,0,0,1.693981,-16.86529,-25.11111)" />
    <linearGradient
       inkscape:collect="always"
       xlink:href="#linearGradient2807"
       id="linearGradient7901"
       x1="15.578875"
       y1="16.285088"
       x2="32.166405"
       y2="28.394291"
       gradientUnits="userSpaceOnUse" />
    <linearGradient
       inkscape:collect="always"
       xlink:href="#linearGradient4981"
       id="linearGradient4987"
       x1="23.995985"
       y1="20.105337"
       x2="41.047836"
       y2="37.959785"
       gradientUnits="userSpaceOnUse"
       gradientTransform="translate(0,-2)" />
    <linearGradient
       inkscape:collect="always"
       xlink:href="#linearGradient11780"
       id="linearGradient2057"
       x1="15.737001"
       y1="12.5036"
       x2="53.570126"
       y2="47.374317"
       gradientUnits="userSpaceOnUse"
       gradientTransform="translate(0,-2)" />
    <linearGradient
       y2="9.650753"
       x2="9.8940229"
       y1="5.3855424"
       x1="5.736527"
       gradientTransform="rotate(180,15.86085,15.645395)"
       gradientUnits="userSpaceOnUse"
       id="linearGradient15772"
       xlink:href="#linearGradient2807"
       inkscape:collect="always" />
    <linearGradient
       id="linearGradient11014">
      <stop
         style="stop-color:#a80000;stop-opacity:1.0000000;"
         offset="0.0000000"
         id="stop11016" />
      <stop
         style="stop-color:#c60000;stop-opacity:1.0000000;"
         offset="0.0000000"
         id="stop13245" />
      <stop
         style="stop-color:#e50000;stop-opacity:1.0000000;"
         offset="1.0000000"
         id="stop11018" />
    </linearGradient>
    <linearGradient
       id="linearGradient11780">
      <stop
         style="stop-color:#ff8b8b;stop-opacity:1.0000000;"
         offset="0.0000000"
         id="stop11782" />
      <stop
         style="stop-color:#ec1b1b;stop-opacity:1.0000000;"
         offset="1.0000000"
         id="stop11784" />
    </linearGradient>
    <linearGradient
       id="linearGradient14236">
      <stop
         id="stop14238"
         offset="0.0000000"
         style="stop-color:#ed4040;stop-opacity:1.0000000;" />
      <stop
         id="stop14240"
         offset="1.0000000"
         style="stop-color:#a40000;stop-opacity:1.0000000;" />
    </linearGradient>
    <linearGradient
       id="linearGradient4981">
      <stop
         style="stop-color:#cc0000;stop-opacity:1;"
         offset="0"
         id="stop4983" />
      <stop
         style="stop-color:#b30000;stop-opacity:1.0000000;"
         offset="1.0000000"
         id="stop4985" />
    </linearGradient>
    <radialGradient
       inkscape:collect="always"
       xlink:href="#linearGradient4126"
       id="radialGradient21650"
       cx="25.125"
       cy="36.75"
       fx="25.125"
       fy="36.75"
       r="15.75"
       gradientTransform="matrix(1,0,0,0.595238,0,14.875)"
       gradientUnits="userSpaceOnUse" />
    <linearGradient
       id="linearGradient9647">
      <stop
         style="stop-color:#ffffff;stop-opacity:1;"
         offset="0"
         id="stop9649" />
      <stop
         style="stop-color:#dbdbdb;stop-opacity:1;"
         offset="1"
         id="stop9651" />
    </linearGradient>
    <linearGradient
       id="linearGradient2256">
      <stop
         style="stop-color:#ff0202;stop-opacity:1;"
         offset="0"
         id="stop2258" />
      <stop
         style="stop-color:#ff9b9b;stop-opacity:1;"
         offset="1"
         id="stop2260" />
    </linearGradient>
    <radialGradient
       r="12.30225"
       fy="33.30225"
       fx="24.30225"
       cy="33.30225"
       cx="24.30225"
       gradientTransform="matrix(1.693981,0,0,1.693981,-16.86529,-23.715608)"
       gradientUnits="userSpaceOnUse"
       id="radialGradient2335"
       xlink:href="#linearGradient9647"
       inkscape:collect="always" />
    <linearGradient
       y2="35.05225"
       x2="24.30225"
       y1="15.80225"
       x1="21.75"
       gradientTransform="translate(-7.1723252e-7,-0.6044975)"
       gradientUnits="userSpaceOnUse"
       id="linearGradient2337"
       xlink:href="#linearGradient2256"
       inkscape:collect="always" />
    <radialGradient
       inkscape:collect="always"
       xlink:href="#linearGradient4126"
       id="radialGradient3605"
       gradientUnits="userSpaceOnUse"
       gradientTransform="matrix(2.182912,0,0,0.7675402,-19.531098,16.887937)"
       cx="17.3125"
       cy="25.53125"
       fx="17.3125"
       fy="25.53125"
       r="9.6875" />
    <radialGradient
       cx="17.3125"
       cy="25.53125"
       r="9.6875"
       fx="17.3125"
       fy="25.53125"
       id="radialGradient7200"
       xlink:href="#linearGradient4126"
       gradientUnits="userSpaceOnUse"
       gradientTransform="matrix(2.182912,0,0,0.7675402,-13.50372,21.786089)" />
    <radialGradient
       cx="17.3125"
       cy="25.53125"
       r="9.6875"
       fx="17.3125"
       fy="25.53125"
       id="radialGradient3107"
       xlink:href="#linearGradient4126"
       gradientUnits="userSpaceOnUse"
       gradientTransform="matrix(1,0,0,0.351613,0,16.55413)" />
    <radialGradient
       inkscape:collect="always"
       xlink:href="#linearGradient4126"
       id="radialGradient3489"
       gradientUnits="userSpaceOnUse"
       gradientTransform="matrix(1,0,0,0.351613,0,16.5541)"
       cx="17.3125"
       cy="25.53125"
       fx="17.3125"
       fy="25.53125"
       r="9.6875" />
    <radialGradient
       inkscape:collect="always"
       xlink:href="#linearGradient4126"
       id="radialGradient2659"
       gradientUnits="userSpaceOnUse"
       gradientTransform="matrix(1,0,0,0.351613,0,16.5541)"
       cx="17.3125"
       cy="25.53125"
       fx="17.3125"
       fy="25.53125"
       r="9.6875" />
    <inkscape:perspective
       id="perspective2598"
       inkscape:persp3d-origin="23.999999 : 16 : 1"
       inkscape:vp_z="47.999998 : 24 : 1"
       inkscape:vp_y="0 : 999.99999 : 0"
       inkscape:vp_x="0 : 24 : 1"
       sodipodi:type="inkscape:persp3d" />
    <linearGradient
       id="linearGradient2591">
      <stop
         id="stop2593"
         offset="0"
         style="stop-color:#73d216" />
      <stop
         id="stop2595"
         offset="1.0000000"
         style="stop-color:#4e9a06" />
    </linearGradient>
    <radialGradient
       inkscape:collect="always"
       xlink:href="#linearGradient4126"
       id="radialGradient3107-5"
       cx="17.3125"
       cy="25.53125"
       fx="17.3125"
       fy="25.53125"
       r="9.6875"
       gradientTransform="matrix(1,0,0,0.351613,0,16.5541)"
       gradientUnits="userSpaceOnUse" />
    <inkscape:perspective
       sodipodi:type="inkscape:persp3d"
       inkscape:vp_x="0 : 24 : 1"
       inkscape:vp_y="0 : 999.99999 : 0"
       inkscape:vp_z="47.999998 : 24 : 1"
       inkscape:persp3d-origin="23.999999 : 16 : 1"
       id="perspective2492" />
    <linearGradient
       id="linearGradient30695">
      <stop
         offset="0"
         style="stop-color:#b8babc;stop-opacity:1"
         id="stop0" />
      <stop
         offset="0.37383178"
         style="stop-color:#5d6062;stop-opacity:1"
         id="stop03" />
      <stop
         offset="1"
         style="stop-color:#585b5d;stop-opacity:1"
         id="stop1" />
    </linearGradient>
    <linearGradient
       id="linearGradient30685">
      <stop
         offset="0"
         style="stop-color:#8d8d8d;stop-opacity:1"
         id="stop30687" />
      <stop
         offset="1"
         style="stop-color:#747474;stop-opacity:1"
         id="stop30689" />
    </linearGradient>
    <linearGradient
       id="linearGradient30649">
      <stop
         offset="0"
         style="stop-color:#858585;stop-opacity:1"
         id="stop30651" />
      <stop
         offset="1"
         style="stop-color:#5f5f5f;stop-opacity:1"
         id="stop30653" />
    </linearGradient>
    <linearGradient
       id="linearGradient30518">
      <stop
         offset="0"
         style="stop-color:#fff;stop-opacity:1"
         id="stop30520" />
      <stop
         offset="1"
         style="stop-color:#fff;stop-opacity:0.78698224"
         id="stop30522" />
    </linearGradient>
    <radialGradient
       gradientTransform="matrix(1,0,0,0.343066,0,28.49453)"
       gradientUnits="userSpaceOnUse"
       xlink:href="#linearGradient4126"
       id="radialGradient30511"
       fy="43.375"
       fx="25.375"
       r="17.125"
       cy="43.375"
       cx="25.375" />
    <linearGradient
       gradientTransform="matrix(1,0,0,1.021753,0,-0.065543)"
       gradientUnits="userSpaceOnUse"
       xlink:href="#linearGradient30518"
       id="linearGradient30524"
       y2="40.625908"
       x2="39.060543"
       y1="5.8892856"
       x1="14.209836" />
    <linearGradient
       gradientUnits="userSpaceOnUse"
       xlink:href="#linearGradient30649"
       id="linearGradient30667"
       y2="25.848938"
       x2="20.086588"
       y1="22.048241"
       x1="20.086588" />
    <linearGradient
       gradientUnits="userSpaceOnUse"
       xlink:href="#linearGradient30649"
       id="linearGradient30673"
       y2="32.964199"
       x2="20.086588"
       y1="29.03092"
       x1="20.086588" />
    <linearGradient
       gradientUnits="userSpaceOnUse"
       xlink:href="#linearGradient30649"
       id="linearGradient30679"
       y2="39.814297"
       x2="20.086588"
       y1="36.10199"
       x1="20.086588" />
    <linearGradient
       gradientTransform="matrix(1.102932,0,0,1,-4.117285,0)"
       gradientUnits="userSpaceOnUse"
       xlink:href="#linearGradient30685"
       id="linearGradient30691"
       y2="40.161388"
       x2="36.356823"
       y1="38.036388"
       x1="36.356823" />
    <linearGradient
       gradientTransform="matrix(1.102932,0,0,1,-4.117285,0)"
       gradientUnits="userSpaceOnUse"
       xlink:href="#linearGradient30685"
       id="linearGradient30693"
       y2="26.911388"
       x2="36.356823"
       y1="25.411388"
       x1="36.356823" />
    <linearGradient
       gradientUnits="userSpaceOnUse"
       xlink:href="#linearGradient30695"
       id="linearGradient30701"
       y2="42.5625"
       x2="25.864925"
       y1="8.8124981"
       x1="19.760065" />
    <linearGradient
       gradientTransform="matrix(1.102932,0,0,1,-3.492285,0.625)"
       gradientUnits="userSpaceOnUse"
       xlink:href="#linearGradient30685"
       id="linearGradient30709"
       y2="40.161388"
       x2="36.356823"
       y1="38.036388"
       x1="36.356823" />
    <linearGradient
       gradientTransform="matrix(1.102932,0,0,1,-3.492285,0.625)"
       gradientUnits="userSpaceOnUse"
       xlink:href="#linearGradient30685"
       id="linearGradient30711"
       y2="26.911388"
       x2="36.356823"
       y1="25.411388"
       x1="36.356823" />
    <radialGradient
       r="17.125"
       fy="43.375"
       fx="25.375"
       cy="43.375"
       cx="25.375"
       gradientTransform="matrix(1,0,0,0.343066,0,28.49453)"
       gradientUnits="userSpaceOnUse"
       id="radialGradient3061"
       xlink:href="#linearGradient4126" />
    <radialGradient
       r="17.125"
       fy="43.375"
       fx="25.375"
       cy="43.375"
       cx="25.375"
       gradientTransform="matrix(1.160584,0,0,0.343066,-4.324818,27.11953)"
       gradientUnits="userSpaceOnUse"
       id="radialGradient3064"
       xlink:href="#linearGradient4126" />
    <linearGradient
       inkscape:collect="always"
       xlink:href="#linearGradient30649"
       id="linearGradient255"
       gradientUnits="userSpaceOnUse"
       x1="20.086588"
       y1="22.048241"
       x2="20.086588"
       y2="25.848938" />
    <linearGradient
       inkscape:collect="always"
       xlink:href="#linearGradient30649"
       id="linearGradient257"
       gradientUnits="userSpaceOnUse"
       x1="20.086588"
       y1="22.048241"
       x2="20.086588"
       y2="25.848938" />
    <linearGradient
       inkscape:collect="always"
       xlink:href="#linearGradient30649"
       id="linearGradient259"
       gradientUnits="userSpaceOnUse"
       x1="20.086588"
       y1="22.048241"
       x2="20.086588"
       y2="25.848938" />
    <linearGradient
       inkscape:collect="always"
       xlink:href="#linearGradient30649"
       id="linearGradient261"
       gradientUnits="userSpaceOnUse"
       x1="20.086588"
       y1="29.03092"
       x2="20.086588"
       y2="32.964199" />
    <linearGradient
       inkscape:collect="always"
       xlink:href="#linearGradient30649"
       id="linearGradient263"
       gradientUnits="userSpaceOnUse"
       x1="20.086588"
       y1="29.03092"
       x2="20.086588"
       y2="32.964199" />
    <linearGradient
       inkscape:collect="always"
       xlink:href="#linearGradient30649"
       id="linearGradient265"
       gradientUnits="userSpaceOnUse"
       x1="20.086588"
       y1="36.10199"
       x2="20.086588"
       y2="39.814297" />
    <linearGradient
       inkscape:collect="always"
       xlink:href="#linearGradient30649"
       id="linearGradient267"
       gradientUnits="userSpaceOnUse"
       x1="20.086588"
       y1="36.10199"
       x2="20.086588"
       y2="39.814297" />
  </defs>
  <sodipodi:namedview
     id="base"
     pagecolor="#ffffff"
     bordercolor="#666666"
     borderopacity="1.0"
     inkscape:pageopacity="0.0"
     inkscape:pageshadow="2"
     inkscape:zoom="3.959798"
     inkscape:cx="8.1888423"
     inkscape:cy="22.415086"
     inkscape:document-units="mm"
     inkscape:current-layer="layer1"
     showgrid="false"
     fit-margin-top="0"
     fit-margin-left="0"
     fit-margin-right="0"
     fit-margin-bottom="0"
     inkscape:window-width="1366"
     inkscape:window-height="706"
     inkscape:window-x="-8"
     inkscape:window-y="-8"
     inkscape:window-maximized="1" />
  <metadata
     id="metadata5">
    <rdf:RDF>
      <cc:Work
         rdf:about="">
        <dc:format>image/svg+xml</dc:format>
        <dc:type
           rdf:resource="http://purl.org/dc/dcmitype/StillImage" />
        <dc:title></dc:title>
      </cc:Work>
    </rdf:RDF>
  </metadata>
  <g
     inkscape:label="Layer 1"
     inkscape:groupmode="layer"
     id="layer1"
     transform="translate(-99.864495,-142.70637)">
    <g
       id="layer1-1"
       inkscape:label="Layer 1"
       transform="matrix(0.26458333,0,0,0.26458333,99.471132,142.58047)">
      <ellipse
         transform="matrix(0.742527,0,-0.05812964,1.428611,4.500517,-36.68345)"
         id="path17409"
         style="opacity:1;fill:url(#radialGradient18290);fill-opacity:1;stroke:none;stroke-width:12.39700031;stroke-miterlimit:4;stroke-dasharray:none;stroke-opacity:1"
         cx="29.898689"
         cy="45.673546"
         rx="30.365856"
         ry="12.613509" />
      <path
         sodipodi:nodetypes="cccscsssscsccsc"
         id="path3120"
         d="M 23.152758,1.1801876 C 20.380218,1.2190783 17.86582,1.8908769 15.634281,3.0196314 14.541531,5.1714614 10.9437,7.7293655 9.4689484,8.0015561 6.5691703,11.460832 4.6887193,15.805035 3.9754523,19.98162 c -4.375e-4,0.0026 4.366e-4,0.0052 0,0.0077 -1.1863594,1.549717 -1.6900108,3.396594 -1.3773472,5.53256 1.1211744,7.659314 3.2821678,14.888292 8.1850959,16.556275 7.154429,2.433946 21.871769,1.785847 25.129507,0.458258 7.13903,-2.909286 7.771453,-9.285098 8.891432,-16.780256 0.305554,-2.044832 -0.144835,-3.841202 -1.230601,-5.372942 -0.009,-0.0556 -0.01849,-0.111474 -0.02832,-0.167342 C 42.763966,15.777007 40.697859,11.326849 37.602582,7.8466935 35.508773,7.62926 31.462964,4.270333 30.483158,2.6229925 28.330506,1.7020155 25.961342,1.1801876 23.407632,1.1801876 c -0.08532,0 -0.170037,-0.00119 -0.254874,0 z"
         style="fill:url(#radialGradient7666);fill-opacity:1;stroke:#c4a000;stroke-width:1;stroke-miterlimit:4;stroke-dasharray:none;stroke-opacity:1"
         inkscape:connector-curvature="0" />
      <path
         sodipodi:nodetypes="ccscc"
         id="path7668"
         d="M 43.629688,22.792984 C 39.033494,39.233217 10.438199,40.802737 3.7832765,23.04227 3.7410682,39.366403 10.103414,44.083889 28.189955,43.247454 c 3.061977,-0.140689 10.00982,0.04287 14.614484,-9.136776 2.238365,-11.5104 0.825249,-11.317694 0.825249,-11.317694 z"
         style="opacity:0.66666667;fill:url(#radialGradient8549);fill-opacity:1;fill-rule:evenodd;stroke:none;stroke-width:1px;stroke-linecap:butt;stroke-linejoin:miter;stroke-opacity:1"
         inkscape:connector-curvature="0" />
      <path
         sodipodi:nodetypes="cccc"
         id="path8553"
         d="m 34.691565,7.6783057 2.500881,1.1253976 c 0,0 -1.310404,10.1226397 -6.669016,16.4849717 1.771665,-6.455834 4.188975,-17.6103693 4.168135,-17.6103693 z"
         style="fill:url(#radialGradient9434);fill-opacity:1;fill-rule:evenodd;stroke:none;stroke-width:1px;stroke-linecap:butt;stroke-linejoin:miter;stroke-opacity:1"
         inkscape:connector-curvature="0" />
      <path
         sodipodi:nodetypes="cccc"
         id="path9436"
         d="m 15.872437,4.1562328 c 1.50053,9.0656942 6.50229,19.4860282 6.002115,20.0070452 -4.584948,-6.981624 -6.502291,-12.921217 -8.00282,-17.9229779 0,-0.083363 2.000705,-2.0632267 2.000705,-2.0840673 z"
         style="fill:url(#radialGradient10317);fill-opacity:1;fill-rule:evenodd;stroke:none;stroke-width:1px;stroke-linecap:butt;stroke-linejoin:miter;stroke-opacity:1"
         inkscape:connector-curvature="0" />
      <path
         sodipodi:nodetypes="ccsc"
         id="path10319"
         d="M 30.21082,3.8227818 C 26.126047,20.328594 25.959322,23.079563 25.959322,23.079563 c 0,0 6.335566,-16.7559003 6.335566,-17.1727135 0,-8e-7 -1.583891,-1.5005286 -2.084068,-2.0840677 z"
         style="fill:url(#radialGradient11208);fill-opacity:1;fill-rule:evenodd;stroke:none;stroke-width:1px;stroke-linecap:butt;stroke-linejoin:miter;stroke-opacity:1"
         inkscape:connector-curvature="0" />
      <flowRoot
         id="flowRoot12974"
         xml:space="preserve"><flowRegion
           id="flowRegion12976"><rect
             y="412.80496"
             x="86.787514"
             height="16.02231"
             width="40.055775"
             id="rect12978" /></flowRegion><flowPara
           id="flowPara12980" /></flowRoot>      <path
         sodipodi:nodetypes="ccccccc"
         id="path13014"
         d="m 16.18209,34.476182 -0.04467,-9.569745 h 14.493727 l 1.642604,-1.263542 H 15.342282 l 0.04467,10.640581 z"
         style="fill:url(#radialGradient13895);fill-opacity:1;fill-rule:evenodd;stroke:none;stroke-width:1px;stroke-linecap:butt;stroke-linejoin:miter;stroke-opacity:1"
         inkscape:connector-curvature="0" />
      <path
         sodipodi:nodetypes="ccccc"
         id="path13897"
         d="m 31.043495,24.81709 0.08168,9.804611 0.686144,-0.214742 0.01198,-10.85341 z"
         style="fill:#958401;fill-opacity:1;fill-rule:evenodd;stroke:none;stroke-width:1px;stroke-linecap:butt;stroke-linejoin:miter;stroke-opacity:1"
         inkscape:connector-curvature="0" />
      <path
         sodipodi:nodetypes="ccccscc"
         id="path16526"
         d="m 4.2551267,24.106065 c 0,0 2.3166503,8.115689 10.2209413,8.766037 1.105608,2.490418 -1.13497,4.124601 -1.13497,4.124601 L 9.7315781,36.745641 c 0,0 -6.2387745,-7.992942 -6.4882087,-9.900882 -0.2494325,-1.907937 0.1632835,-3.407793 0.1632835,-3.407793 z"
         style="fill:url(#radialGradient2798);fill-opacity:1;fill-rule:evenodd;stroke:none;stroke-width:1px;stroke-linecap:butt;stroke-linejoin:miter;stroke-opacity:1"
         inkscape:connector-curvature="0" />
      <path
         style="opacity:0.74444442;fill:none;fill-opacity:1;stroke:#ffffff;stroke-width:0.99999976;stroke-miterlimit:4;stroke-dasharray:none;stroke-opacity:1"
         d="M 23.184204,2.3889904 C 20.570275,2.4256563 18.199721,3.0590226 16.095844,4.1232033 15.065608,6.1519314 11.673602,8.563503 10.283218,8.8201221 7.5493302,12.0815 5.776456,16.17718 5.1039936,20.11483 c -4.124e-4,0.0024 4.116e-4,0.0049 0,0.0073 -1.1184901,1.46106 -1.8584936,3.246475 -1.5637169,5.260247 1.0570343,7.22114 2.9276025,13.709677 7.3279793,15.639454 5.923141,2.597582 21.539722,1.785935 24.611092,0.534295 6.73062,-2.742852 7.061699,-8.930694 8.117606,-15.997069 0.288074,-1.927851 -0.13655,-3.621454 -1.160201,-5.065566 -0.0084,-0.05242 -0.01743,-0.105097 -0.0267,-0.157769 C 41.673494,16.150755 39.725585,11.955182 36.807382,8.6741189 34.833356,8.4691243 31.019,5.3023548 30.095246,3.7492553 28.065743,2.8809656 25.832115,2.3889904 23.424497,2.3889904 c -0.08044,0 -0.160309,-0.00112 -0.240293,0 z"
         id="path2703"
         sodipodi:nodetypes="cccscsssscsccsc"
         inkscape:connector-curvature="0" />
      <path
         sodipodi:nodetypes="cccssccscccssc"
         id="path2800"
         d="m 22.59375,2.78125 c -2.329557,0.1165682 -4.440971,0.7250384 -6.34375,1.6875 -1.010725,1.9903059 -4.354698,4.373241 -5.71875,4.625 -2.6821095,3.199611 -4.4027734,7.199424 -5.0625,11.0625 -4.046e-4,0.0024 4.038e-4,0.02888 0,0.03125 -1.0973069,1.43339 -1.4580267,3.591148 -1.4580267,3.591148 4.685267,3.605062 7.6416117,0.213892 14.3188727,-2.01722 12.59928,1.923141 18.748338,-0.995945 22.514154,-5.667678 0.0069,-0.0085 -0.0035,-0.02088 0,-0.03125 C 39.852567,13.479666 38.411479,11.016387 36.5625,8.9375 34.62586,8.7363873 30.875008,5.6486852 29.96875,4.125 27.977684,3.2731547 25.79952,2.78125 23.4375,2.78125 c -0.07892,10e-8 -0.171531,-0.0011 -0.25,0 -0.200346,0.00281 -0.39633,-0.00988 -0.59375,0 z"
         style="opacity:0.5944443;fill:url(#radialGradient2813);fill-opacity:1;stroke:none;stroke-width:1;stroke-miterlimit:4;stroke-dasharray:none;stroke-opacity:1"
         inkscape:connector-curvature="0" />
    </g>
    <g
       style="stroke-width:1"
       id="layer1-2"
       transform="matrix(0.16078368,0,0,0.16078368,104.3926,143.15784)">
      <path
         style="fill:url(#radialGradient3064)"
         id="path30503"
         d="M 45,42 A 19.875001,5.875 0 0 1 5.25,42 19.875001,5.875 0 1 1 45,42 Z"
         inkscape:connector-curvature="0" />
      <rect
         style="fill:url(#linearGradient30701);stroke:#333333"
         id="rect30499"
         y="2.5104303"
         x="6.5100656"
         ry="2"
         rx="2"
         height="42.104137"
         width="36.979858" />
      <path
         style="fill:#2e3436"
         id="path30526"
         d="M 9.9822237,5.1161175 H 39.957116 C 41.088875,5.1161175 42,6.4933386 42,8.204057 v 6.961337 c 0,3.319618 -3.928311,4.430801 -5.060068,4.430801 H 12.999408 c -1.131757,0 -5.0600682,-1.506485 -5.0600682,-4.430801 V 8.204057 c 0,-1.7107184 0.9111262,-3.0879395 2.0428839,-3.0879395 z"
         inkscape:connector-curvature="0" />
      <path
         style="fill:#babdb6"
         id="rect30501"
         d="M 11,6 H 39.16142 C 40.143997,6 41,6.8560034 41,7.9192899 V 12.246064 C 41,14.309351 37.309351,15 36.246064,15 H 13.753936 C 12.690649,15 9,14.063654 9,12.246064 V 7.9192899 C 9,6.8560034 9.8560033,6 11,6 Z"
         inkscape:connector-curvature="0" />
      <rect
         style="fill:#777b5e"
         id="rect30514"
         y="7"
         x="12.25"
         ry="1"
         rx="1"
         height="5"
         width="25.25" />
      <rect
         style="opacity:0.5;fill:none;stroke:url(#linearGradient30524)"
         id="rect30516"
         y="3.5238943"
         x="7.3736029"
         ry="1"
         rx="1"
         height="40"
         width="35" />
      <g
         transform="translate(0.7,0.7)"
         style="stroke:#707070;stroke-opacity:1"
         id="g30602">
        <rect
           id="rect11"
           y="21.397179"
           x="10.443745"
           ry="1"
           rx="1"
           height="5"
           width="5" />
        <rect
           id="rect12"
           y="21.397179"
           x="17.5"
           ry="1"
           rx="1"
           height="5"
           width="5" />
        <rect
           id="rect13"
           y="21.397179"
           x="24.5"
           ry="1"
           rx="1"
           height="5"
           width="5" />
        <rect
           id="rect14"
           y="28.315439"
           x="10.443745"
           ry="1"
           rx="1"
           height="5"
           width="5" />
        <rect
           id="rect15"
           y="28.315439"
           x="17.5"
           ry="1"
           rx="1"
           height="5"
           width="5" />
        <rect
           id="rect16"
           y="28.315439"
           x="24.5"
           ry="1"
           rx="1"
           height="5"
           width="5" />
        <rect
           id="rect17"
           y="35.315437"
           x="10.443745"
           ry="1"
           rx="1"
           height="5"
           width="5" />
        <rect
           id="rect18"
           y="35.315437"
           x="17.5"
           ry="1"
           rx="1"
           height="5"
           width="5" />
        <rect
           id="rect19"
           y="35.315437"
           x="24.5"
           ry="1"
           rx="1"
           height="5"
           width="5" />
      </g>
      <g
         style="fill:url(#linearGradient30667);stroke:#343434"
         id="g3047">
        <rect
           style="fill:url(#linearGradient255)"
           width="5"
           height="5"
           rx="1"
           ry="1"
           x="10.443745"
           y="21.397179"
           id="rect21" />
        <rect
           style="fill:url(#linearGradient257)"
           id="rect22"
           y="21.397179"
           x="17.5"
           ry="1"
           rx="1"
           height="5"
           width="5" />
        <rect
           style="fill:url(#linearGradient259)"
           id="rect23"
           y="21.397179"
           x="24.5"
           ry="1"
           rx="1"
           height="5"
           width="5" />
        <rect
           style="fill:url(#linearGradient261)"
           id="rect24"
           y="28.315439"
           x="10.443745"
           ry="1"
           rx="1"
           height="5"
           width="5" />
        <rect
           style="fill:url(#linearGradient263)"
           id="rect25"
           y="28.315439"
           x="17.5"
           ry="1"
           rx="1"
           height="5"
           width="5" />
        <rect
           style="fill:url(#linearGradient30673)"
           id="rect26"
           y="28.315439"
           x="24.5"
           ry="1"
           rx="1"
           height="5"
           width="5" />
        <rect
           style="fill:url(#linearGradient265)"
           id="rect27"
           y="35.315437"
           x="10.443745"
           ry="1"
           rx="1"
           height="5"
           width="5" />
        <rect
           style="fill:url(#linearGradient267)"
           id="rect28"
           y="35.315437"
           x="17.5"
           ry="1"
           rx="1"
           height="5"
           width="5" />
        <rect
           style="fill:url(#linearGradient30679)"
           id="rect29"
           y="35.315437"
           x="24.5"
           ry="1"
           rx="1"
           height="5"
           width="5" />
      </g>
      <rect
         style="fill:url(#linearGradient30709);stroke:#7d7d7d"
         id="rect30705"
         y="30.225506"
         x="33.140106"
         ry="1.3830814"
         rx="1.5254447"
         height="10.871767"
         width="6.933423" />
      <rect
         style="fill:url(#linearGradient30691);stroke:#343434"
         id="rect30528"
         y="29.600506"
         x="32.515106"
         ry="1.3830814"
         rx="1.5254447"
         height="10.871767"
         width="6.933423" />
      <rect
         style="fill:url(#linearGradient30711);stroke:#7d7d7d"
         id="rect30707"
         y="22.042002"
         x="33.140106"
         ry="1.2144693"
         rx="1.3394771"
         height="6.2664795"
         width="6.933423" />
      <rect
         style="fill:url(#linearGradient30693);stroke:#343434"
         id="rect30567"
         y="21.417002"
         x="32.515106"
         ry="1.2144693"
         rx="1.3394771"
         height="6.2664795"
         width="6.933423" />
      <path
         id="text30569"
         d="m 28.408396,9.562298 c 0.173534,0.044822 0.305122,0.12297 0.394765,0.234445 0.09079,0.110329 0.136183,0.251111 0.136185,0.422347 -2e-6,0.255132 -0.09769,0.449354 -0.293056,0.582666 C 28.450917,10.933919 28.165905,11 27.791253,11 27.659089,11 27.526352,10.989083 27.393041,10.967247 27.260877,10.946561 27.129864,10.914957 27,10.872435 v -0.511988 c 0.124117,0.06206 0.247086,0.109178 0.368906,0.141357 0.122969,0.03103 0.243639,0.04655 0.362012,0.04654 0.175833,10e-7 0.310294,-0.03045 0.403384,-0.09137 0.09424,-0.06091 0.141355,-0.148251 0.141357,-0.262027 -2e-6,-0.117222 -0.04827,-0.205714 -0.144805,-0.265475 -0.09539,-0.060909 -0.236745,-0.091364 -0.42407,-0.091365 H 27.441309 V 9.410589 h 0.279266 c 0.166639,2e-6 0.290757,-0.025856 0.372354,-0.077574 0.0816,-0.052863 0.122393,-0.132736 0.122395,-0.239617 -2e-6,-0.098833 -0.03965,-0.175257 -0.118947,-0.229274 -0.0793,-0.054012 -0.19135,-0.081019 -0.336153,-0.081021 -0.106881,2e-6 -0.21491,0.012069 -0.324087,0.036201 -0.109179,0.024136 -0.217782,0.059762 -0.32581,0.106879 V 8.440054 C 27.24134,8.40328 27.371204,8.375699 27.49992,8.357308 c 0.128714,-0.018385 0.255131,-0.027579 0.37925,-0.027582 0.334428,3e-6 0.584388,0.055166 0.749881,0.165491 0.166638,0.109181 0.249958,0.274097 0.24996,0.494749 -2e-6,0.150553 -0.03965,0.274096 -0.118946,0.370631 -0.0793,0.095388 -0.196523,0.162619 -0.351669,0.201692 m 1.170504,0.720575 h 0.620591 v 0.667135 H 29.5789 v -0.667135 m 1.391158,0.208588 h 0.586114 V 8.827923 L 30.954543,8.952041 V 8.500389 l 0.598181,-0.124118 h 0.630934 v 2.115181 h 0.586114 v 0.458547 h -1.799714 v -0.458547 m 3.340849,-1.568716 -0.727471,1.077414 h 0.727471 V 8.922736 M 34.200579,8.376271 h 0.737814 v 1.623879 h 0.367183 v 0.480958 h -0.367183 v 0.468891 H 34.310907 V 10.481108 H 33.169709 V 9.912233 l 1.03087,-1.535962"
         inkscape:connector-curvature="0" />
      <path
         style="fill:#b8b8b8"
         id="text30574"
         d="m 36.268162,33.70821 v 1.212975 h 1.208345 v 0.546302 h -1.208345 v 1.212975 H 35.71723 V 35.467487 H 34.508885 V 34.921185 H 35.71723 V 33.70821 h 0.550932"
         inkscape:connector-curvature="0" />
      <path
         style="fill:#b8b8b8"
         id="text30578"
         d="m 35.324173,24.170804 h 1.453719 v 0.673617 h -1.453719 v -0.673617"
         inkscape:connector-curvature="0" />
    </g>
  </g>
</svg>
